<svg width="36" height="36" viewBox="0 0 36 36" fill="none" xmlns="http://www.w3.org/2000/svg">
<path fill-rule="evenodd" clip-rule="evenodd" d="M6.39592 0.233709C6.39592 0.661593 8.13979 2.62786 9.99002 4.28642C12.1677 6.23848 13.6993 7.87477 14.4245 9.02405C15.3662 10.5166 16.1559 13.052 16.4693 15.5894C16.9576 19.5432 16.1225 24.6699 14.5928 27.1075C13.3025 29.1634 10.0213 31.1132 3.8939 33.4651C1.84672 34.251 0.108117 35.0271 0.0304367 35.1897C-0.0474827 35.3525 0.0294817 35.6216 0.201096 35.7876C0.622482 36.1954 1.45521 36.042 3.93405 35.1004C6.52212 34.1172 9.83513 33.1234 12.383 32.5657C15.2787 31.9321 20.4322 31.9361 23.3661 32.5744C25.92 33.1301 29.2072 34.1141 31.8034 35.1004C34.2476 36.0287 35.0418 36.1729 35.6664 35.8013C36.0777 35.5567 36.0937 35.4818 35.7966 35.1943C35.6102 35.014 33.6244 34.1483 31.3839 33.2704C29.1431 32.3926 26.6182 31.3132 25.7725 30.8717C23.8874 29.8873 21.9019 28.3076 21.2398 27.2655C19.8076 25.0107 18.8781 20.2871 19.1525 16.6582C19.543 11.4931 21.0596 8.51305 25.1554 4.86269C27.6748 2.61711 29.6331 0.32969 29.2791 0.0455855C29.1979 -0.0198736 27.8042 0.198004 26.1822 0.529715C20.6294 1.66536 15.1188 1.6669 9.54234 0.534706C6.31131 -0.121229 6.39592 -0.113167 6.39592 0.233709Z" fill="black"/>
</svg>
